<svg xmlns="http://www.w3.org/2000/svg" viewBox="0 0 200 200"><defs><style>.cls-1,.cls-2{fill:none;stroke:#000;stroke-width:4px;}.cls-1{stroke-linecap:round;stroke-linejoin:round;}.cls-2{stroke-linecap:square;stroke-miterlimit:10;}</style></defs><title>icon</title><g id="Icon_5" data-name="Icon 5"><path class="cls-1" d="M184.5,96.5A84,84,0,0,1,42,156.8c-.93-.91-1.84-1.83-2.73-2.78-.47-.49-.92-1-1.37-1.49a84,84,0,0,1-.23-111.81l1.52-1.63c1-1,2.07-2.16,2.44-2.53A84,84,0,0,1,184.5,96.5Z"/><line class="cls-1" x1="43" y1="59" x2="43" y2="37"/><line class="cls-1" x1="43" y1="103" x2="43" y2="156"/><line class="cls-1" x1="80" y1="108" x2="80" y2="16"/><line class="cls-1" x1="80" y1="151" x2="80" y2="176"/><line class="cls-1" x1="117" y1="82" x2="117" y2="178"/><line class="cls-1" x1="117" y1="40" x2="117" y2="14.33"/><line class="cls-1" x1="155" y1="80" x2="155" y2="34"/><line class="cls-1" x1="155" y1="123" x2="155" y2="160"/><path class="cls-2" d="M82,116s7,0,7,7v15s0,6-7,6"/><path class="cls-2" d="M79,116s-7,0-7,7v15s0,6,7,6"/><path class="cls-2" d="M156,87s7,0,7,7v15s0,6-7,6"/><path class="cls-2" d="M153,87s-7,0-7,7v15s0,6,7,6"/><path class="cls-2" d="M119,47s7,0,7,7V69s0,6-7,6"/><path class="cls-2" d="M116,47s-7,0-7,7V69s0,6,7,6"/><path class="cls-2" d="M45,68s7,0,7,7V90s0,6-7,6"/><path class="cls-2" d="M42,68s-7,0-7,7V90s0,6,7,6"/></g></svg>