<svg xmlns="http://www.w3.org/2000/svg" viewBox="0 0 200 200"><defs><style>.cls-1,.cls-2{fill:none;stroke:#000;stroke-linejoin:round;stroke-width:4px;}.cls-1{stroke-linecap:round;}</style></defs><title>icon</title><g id="Icon_2" data-name="Icon 2"><line class="cls-1" x1="41.95" y1="130.55" x2="58.29" y2="147.2"/><path class="cls-2" d="M62,111l16,16s14-10,28,0c0,0,16-16,22-37,0,0,1.88-5.63,10.18-3.26a7.28,7.28,0,0,0,2.13.27C145,87,160,84.92,160,73c0-14-10-18-10-18s-6-4-17,2L64,96S66,107,62,111Z"/><path class="cls-1" d="M55,118l16,16L45,161s21,27,66,20,80-60,67-103-41-53-55-58C110.19,15.43,72,5,35,45s-13,89-6,98Z"/><circle cx="75" cy="99" r="3"/><circle cx="87" cy="92" r="3"/><circle cx="99" cy="85" r="3"/><circle cx="111" cy="78" r="3"/><circle cx="124" cy="71" r="3"/><circle cx="136" cy="65" r="3"/></g></svg>