<svg xmlns="http://www.w3.org/2000/svg" viewBox="0 0 200 200"><defs><style>.cls-1{fill:none;stroke:#000;stroke-linecap:round;stroke-linejoin:round;stroke-width:4px;}</style></defs><title>icon</title><g id="Icon_4" data-name="Icon 4"><path class="cls-1" d="M184.5,101.5A84,84,0,0,1,42,161.8c-.93-.91-1.84-1.83-2.73-2.78-.47-.49-.92-1-1.37-1.49a84,84,0,0,1-.23-111.81l1.52-1.63c1-1,2.07-2.16,2.44-2.53A84,84,0,0,1,184.5,101.5Z"/><polygon class="cls-1" points="76 92 127 92 139 122 126 159 77 159 64 122 76 92"/><line class="cls-1" x1="139" y1="122" x2="65" y2="122"/><path class="cls-1" d="M76,92s43,49,50,67"/><path class="cls-1" d="M78,157s33-53,48-62"/><path class="cls-1" d="M80.71,159,81,56s1-7,8-7h26s7,1,7,7V159"/><path class="cls-1" d="M91,161v3s1,3,11,3"/><line class="cls-1" x1="97" y1="168" x2="97" y2="184"/><line class="cls-1" x1="106" y1="168" x2="106" y2="184"/><path class="cls-1" d="M112,161v3s-1,3-11,3"/></g></svg>