<svg id="Icon_9" data-name="Icon 9" xmlns="http://www.w3.org/2000/svg" viewBox="0 0 200 200"><defs><style>.cls-1{fill:none;stroke:#000;stroke-linecap:round;stroke-linejoin:round;stroke-width:4px;}</style></defs><title>icon</title><path class="cls-1" d="M181.5,94.5A84,84,0,0,1,39,154.8c-.93-.91-1.84-1.83-2.73-2.78-.47-.49-.92-1-1.37-1.49a84,84,0,0,1-.23-111.81l1.52-1.63c1-1,2.07-2.16,2.44-2.53A84,84,0,0,1,181.5,94.5Z"/><polyline class="cls-1" points="102 61 102 48 42 94 102 140 102 127"/><polygon class="cls-1" points="137 48 137 140 76 94 137 48"/></svg>